<svg width="16" height="16" viewBox="0 0 16 16" fill="none" xmlns="http://www.w3.org/2000/svg">
<g clip-path="url(#clip0_210_2)">
<rect width="16" height="16" rx="1.5" fill="#6ABA94"/>
<path d="M4.324 9.192V4.476H5.344V9.252C5.344 10.244 5.128 10.968 4.696 11.424C4.264 11.872 3.564 12.096 2.596 12.096C2.324 12.096 2.072 12.084 1.84 12.06C1.608 12.036 1.396 11.996 1.204 11.94V11.004C1.428 11.052 1.636 11.088 1.828 11.112C2.028 11.128 2.24 11.136 2.464 11.136C3.16 11.136 3.644 10.992 3.916 10.704C4.188 10.416 4.324 9.912 4.324 9.192ZM14.1005 4.476V12H13.1405V6.072L10.9925 10.5H10.1165L7.96853 6.06V12H7.00853V4.476H8.29253L10.5725 9.264L12.8645 4.476H14.1005Z" fill="white"/>
</g>
<defs>
<clipPath id="clip0_210_2">
<rect width="16" height="16" rx="1.5" fill="white"/>
</clipPath>
</defs>
</svg>
