<svg width="118" height="38" viewBox="0 0 118 38" fill="none" xmlns="http://www.w3.org/2000/svg">
<g clip-path="url(#clip0_915_65)">
<path d="M30.2525 28.6959L32.4084 25.793C32.7016 25.3982 32.7543 24.9148 32.6076 24.4816L33.3665 23.4598C34.4948 24.0996 35.8586 24.3737 37.2346 24.1706C40.5734 23.6776 42.9018 20.5424 42.4088 17.2036C41.9158 13.8648 38.7806 11.5364 35.4418 12.0294C32.103 12.5224 29.7746 15.6576 30.2676 18.9964C30.4708 20.3724 31.1245 21.5785 32.066 22.4939L31.3071 23.5158C30.85 23.5005 30.4025 23.6907 30.1093 24.0855L27.9534 26.9884C27.712 27.3135 27.6241 27.6986 27.6779 28.0629C27.7317 28.4271 27.9271 28.7704 28.2522 29.0119C28.8965 29.4543 29.7868 29.3229 30.2525 28.6959ZM31.499 18.7939C31.1046 16.1228 32.9673 13.6147 35.6383 13.2203C38.3094 12.8259 40.8175 14.6886 41.2119 17.3597C41.6063 20.0307 39.7436 22.5388 37.0726 22.9332C34.4015 23.3276 31.8934 21.4649 31.499 18.7939Z" fill="#36454F"/>
<path d="M33.1695 17.2081C33.2854 16.4599 33.9834 14.921 35.8484 14.7502" stroke="#36454F"/>
</g>
<path d="M44.536 11.384H48.04V12.8C48.264 11.696 49.408 11.144 51.472 11.144C52.56 11.144 53.384 11.288 53.944 11.576C54.504 11.848 54.88 12.28 55.072 12.872C55.264 12.264 55.632 11.824 56.176 11.552C56.736 11.28 57.576 11.144 58.696 11.144C59.704 11.144 60.48 11.264 61.024 11.504C61.568 11.728 61.944 12.08 62.152 12.56C62.376 13.04 62.488 13.68 62.488 14.48V23H58.984V14.96C58.984 14.448 58.952 14.088 58.888 13.88C58.824 13.656 58.68 13.504 58.456 13.424C58.248 13.344 57.88 13.304 57.352 13.304C56.696 13.304 56.224 13.344 55.936 13.424C55.664 13.504 55.48 13.656 55.384 13.88C55.304 14.088 55.264 14.448 55.264 14.96V23H51.76V14.96C51.76 14.448 51.728 14.088 51.664 13.88C51.6 13.656 51.456 13.504 51.232 13.424C51.024 13.344 50.656 13.304 50.128 13.304C49.472 13.304 49 13.344 48.712 13.424C48.44 13.504 48.256 13.656 48.16 13.88C48.08 14.088 48.04 14.448 48.04 14.96V23H44.536V11.384ZM71.3914 23.24C67.2794 23.24 65.2234 21.984 65.2234 19.472V15.296C65.2234 13.84 65.6874 12.784 66.6154 12.128C67.5594 11.472 69.0074 11.144 70.9594 11.144C72.7994 11.144 74.1434 11.464 74.9914 12.104C75.8554 12.728 76.2874 13.792 76.2874 15.296V18.128H68.7514V19.184C68.7514 19.856 68.9914 20.336 69.4714 20.624C69.9514 20.912 70.8154 21.056 72.0634 21.056C73.2154 21.056 74.5114 20.888 75.9514 20.552V22.784C74.5274 23.088 73.0074 23.24 71.3914 23.24ZM72.9514 16.136V14.456C72.9514 14.072 72.7914 13.784 72.4714 13.592C72.1674 13.4 71.6474 13.304 70.9114 13.304C70.0634 13.304 69.4954 13.4 69.2074 13.592C68.9034 13.8 68.7514 14.088 68.7514 14.456V16.136H72.9514ZM84.7737 23.24C84.1817 23.24 83.6857 23.216 83.2857 23.168C82.8857 23.12 82.4857 23.024 82.0857 22.88C81.6377 22.736 81.2697 22.536 80.9817 22.28C80.7097 22.024 80.4857 21.672 80.3097 21.224C80.1177 20.76 80.0217 20.224 80.0217 19.616V13.544H77.6697V11.384H80.0217V8.024H83.5257V11.384H86.7177V13.544H83.5257V19.016C83.5257 19.576 83.5737 20 83.6697 20.288C83.7657 20.56 83.9497 20.76 84.2217 20.888C84.4937 21 84.9097 21.056 85.4697 21.056C85.6937 21.056 86.1097 21.016 86.7177 20.936V23.12C85.9657 23.2 85.3177 23.24 84.7737 23.24ZM88.7391 11.384H92.0751V13.424C92.0751 13.056 92.2271 12.696 92.5311 12.344C92.8351 11.992 93.2191 11.704 93.6831 11.48C94.1631 11.256 94.6351 11.144 95.0991 11.144H96.3471V14.048H95.1471C94.1551 14.048 93.4191 14.2 92.9391 14.504C92.4751 14.808 92.2431 15.312 92.2431 16.016V23H88.7391V11.384ZM98.3742 7.184H101.878V10.016H98.3742V7.184ZM98.3742 11.384H101.878V23H98.3742V11.384ZM108.316 17.048L103.996 11.384H108.052L110.332 14.72L112.636 11.384H116.692L112.348 17.048L116.932 23H112.876L110.332 19.352L107.812 23H103.756L108.316 17.048Z" fill="url(#paint0_linear_915_65)"/>
<path d="M1.632 7.184H5.136V10.016H1.632V7.184ZM1.632 11.384H5.136V23H1.632V11.384ZM8.30944 11.384H11.7654V12.8C12.0374 11.696 13.2774 11.144 15.4854 11.144C16.9734 11.144 18.0134 11.416 18.6054 11.96C19.2134 12.488 19.5174 13.328 19.5174 14.48V23H16.0134V14.936C16.0134 14.488 15.9654 14.152 15.8694 13.928C15.7894 13.704 15.6134 13.544 15.3414 13.448C15.0854 13.352 14.6854 13.304 14.1414 13.304C13.4534 13.304 12.9494 13.352 12.6294 13.448C12.3094 13.528 12.0934 13.68 11.9814 13.904C11.8694 14.128 11.8134 14.472 11.8134 14.936V23H8.30944V11.384ZM23.4709 13.544H21.2869V11.384H23.4709V9.632C23.4709 8.688 23.6229 7.952 23.9269 7.424C24.2469 6.88 24.7269 6.504 25.3669 6.296C26.0229 6.072 26.8949 5.96 27.9829 5.96C28.5749 5.96 29.4469 6.024 30.5989 6.152V8.312C29.5749 8.184 28.8869 8.12 28.5349 8.12C27.9429 8.12 27.5349 8.216 27.3109 8.408C27.0869 8.584 26.9749 8.928 26.9749 9.44V11.384H30.1669V13.544H26.9749V23H23.4709V13.544Z" fill="#36454F"/>
<circle cx="11" cy="27" r="2.5" stroke="#36454F"/>
<path d="M28.5473 32.3974C28.5473 34.7831 26.6016 36.7219 24.1957 36.7219C21.7897 36.7219 19.8441 34.7831 19.8441 32.3974C19.8441 30.0118 21.7897 28.073 24.1957 28.073C26.6016 28.073 28.5473 30.0118 28.5473 32.3974Z" stroke="#36454F"/>
<ellipse cx="24.1956" cy="32.3974" rx="2.91096" ry="2.89466" fill="#5FD635"/>
<line x1="14.3124" y1="28.05" x2="19.0392" y2="29.6045" stroke="#36454F" stroke-width="2"/>
<defs>
<linearGradient id="paint0_linear_915_65" x1="51" y1="23" x2="72.5" y2="23" gradientUnits="userSpaceOnUse">
<stop stop-color="#61C43E"/>
<stop offset="1" stop-color="#5FD635"/>
</linearGradient>
<clipPath id="clip0_915_65">
<rect width="19.6364" height="19.6364" fill="white" transform="translate(42.9957 9.13599) rotate(81.6004)"/>
</clipPath>
</defs>
</svg>
