<svg width="100" height="100" viewBox="0 0 100 100" fill="none" xmlns="http://www.w3.org/2000/svg">
<rect y="6" width="100" height="94" rx="15" fill="#FF773D"/>
<path d="M46.09 85.85C42.86 85.85 39.9417 85.425 37.335 84.575C34.785 83.725 32.6033 82.6483 30.79 81.345C28.9767 80.0417 27.4467 78.71 26.2 77.35C25.01 75.9333 24.075 74.6583 23.395 73.525L31.895 64.685C32.575 65.6483 33.3117 66.64 34.105 67.66C34.8983 68.6233 35.7767 69.53 36.74 70.38C37.76 71.23 38.8933 71.91 40.14 72.42C41.4433 72.8733 42.9167 73.1 44.56 73.1C46.77 73.1 48.6683 72.6183 50.255 71.655C51.8417 70.635 53.06 69.275 53.91 67.575C54.8167 65.875 55.27 64.005 55.27 61.965V38.42H41.84V25.5H79.835V38.42H69.38V63.665C69.38 66.725 68.8133 69.615 67.68 72.335C66.6033 75.055 65.045 77.435 63.005 79.475C60.965 81.4583 58.5 83.0167 55.61 84.15C52.7767 85.2833 49.6033 85.85 46.09 85.85Z" fill="white"/>
</svg>
