<svg width="2433" height="290" viewBox="0 0 2433 290" fill="none" xmlns="http://www.w3.org/2000/svg">
<path d="M1173.5 58L438 146L887.5 272.5L1173.5 58Z" fill="#FFB43D" fill-opacity="0.35"/>
<path d="M857.5 58L122 146L571.5 272.5L857.5 58Z" fill="#FFB43D" fill-opacity="0.35"/>
<path d="M610 179L298 216.333L488.678 270L610 179Z" fill="#FFB43D" fill-opacity="0.35"/>
<path d="M1296.5 39L561 127L1010.5 253.5L1296.5 39Z" fill="#FFB43D" fill-opacity="0.35"/>
<path d="M1007.5 40L272 128L721.5 254.5L1007.5 40Z" fill="#FFB43D" fill-opacity="0.35"/>
<path d="M1395 22L682 104.872L1117.75 224L1395 22Z" fill="#FFB43D" fill-opacity="0.35"/>
<path d="M1488 33L918 94.9487L1266.35 184L1488 33Z" fill="#FFB43D" fill-opacity="0.35"/>
<path d="M1693 51L1195 110.897L1499.35 197L1693 51Z" fill="#FFB43D" fill-opacity="0.35"/>
<path d="M1693 51L1195 110.897L1499.35 197L1693 51Z" fill="#FFB43D" fill-opacity="0.35"/>
<path d="M1601 40L929 120.821L1339.69 237L1601 40Z" fill="#FFB43D" fill-opacity="0.35"/>
<path d="M1830 26L1418 75.641L1669.79 147L1830 26Z" fill="#FFB43D" fill-opacity="0.35"/>
<path d="M2021 3L1609 52.641L1860.79 124L2021 3Z" fill="#FFB43D" fill-opacity="0.35"/>
<path d="M0 1.52588e-05L2433 1.52588e-05L0 254V1.52588e-05Z" fill="#FFB238" fill-opacity="0.74"/>
<path d="M-0.000244141 36L2431.93 0L-0.000244141 290V36Z" fill="#FFB238" fill-opacity="0.9"/>
</svg>
