<svg width="738" height="536" viewBox="0 0 738 536" fill="none" xmlns="http://www.w3.org/2000/svg">
<path d="M377.362 530.289L414.336 530.289" stroke="#88CECC" stroke-width="4" stroke-linecap="round" stroke-linejoin="round"/>
<path d="M377.362 487.952L414.336 487.952" stroke="#88CECC" stroke-width="4" stroke-linecap="round" stroke-linejoin="round"/>
<path d="M377.362 445.615L414.336 445.615" stroke="#88CECC" stroke-width="4" stroke-linecap="round" stroke-linejoin="round"/>
<path d="M377.362 403.278L414.336 403.278" stroke="#88CECC" stroke-width="4" stroke-linecap="round" stroke-linejoin="round"/>
<path d="M458.704 530.289L495.678 530.289" stroke="#88CECC" stroke-width="4" stroke-linecap="round" stroke-linejoin="round"/>
<path d="M458.704 487.952L495.678 487.952" stroke="#88CECC" stroke-width="4" stroke-linecap="round" stroke-linejoin="round"/>
<path d="M458.704 445.615L495.678 445.615" stroke="#88CECC" stroke-width="4" stroke-linecap="round" stroke-linejoin="round"/>
<path d="M458.704 403.278L495.678 403.278" stroke="#88CECC" stroke-width="4" stroke-linecap="round" stroke-linejoin="round"/>
<path d="M458.704 360.941L495.678 360.941" stroke="#88CECC" stroke-width="4" stroke-linecap="round" stroke-linejoin="round"/>
<path d="M458.704 318.604L495.678 318.604" stroke="#88CECC" stroke-width="4" stroke-linecap="round" stroke-linejoin="round"/>
<path d="M458.704 276.267L495.678 276.267" stroke="#88CECC" stroke-width="4" stroke-linecap="round" stroke-linejoin="round"/>
<path d="M540.046 530.289L577.02 530.289" stroke="#88CECC" stroke-width="4" stroke-linecap="round" stroke-linejoin="round"/>
<path d="M621.388 530.289L658.362 530.289" stroke="#88CECC" stroke-width="4" stroke-linecap="round" stroke-linejoin="round"/>
<path d="M540.046 487.952L577.02 487.952" stroke="#88CECC" stroke-width="4" stroke-linecap="round" stroke-linejoin="round"/>
<path d="M621.388 487.952L658.362 487.952" stroke="#88CECC" stroke-width="4" stroke-linecap="round" stroke-linejoin="round"/>
<path d="M540.046 445.615L577.02 445.615" stroke="#88CECC" stroke-width="4" stroke-linecap="round" stroke-linejoin="round"/>
<path d="M621.388 445.615L658.362 445.615" stroke="#88CECC" stroke-width="4" stroke-linecap="round" stroke-linejoin="round"/>
<path d="M621.388 403.278L658.362 403.278" stroke="#88CECC" stroke-width="4" stroke-linecap="round" stroke-linejoin="round"/>
<path d="M621.388 360.941L658.362 360.941" stroke="#88CECC" stroke-width="4" stroke-linecap="round" stroke-linejoin="round"/>
<path d="M290.705 530.289L327.679 530.289" stroke="#E2E700" stroke-opacity="0.51" stroke-width="4" stroke-linecap="round" stroke-linejoin="round"/>
<path d="M290.705 487.952L327.679 487.952" stroke="#E2E700" stroke-opacity="0.51" stroke-width="4" stroke-linecap="round" stroke-linejoin="round"/>
<path d="M290.705 445.615L327.679 445.615" stroke="#E2E700" stroke-opacity="0.51" stroke-width="4" stroke-linecap="round" stroke-linejoin="round"/>
<path d="M290.705 403.278L327.679 403.278" stroke="#E2E700" stroke-opacity="0.51" stroke-width="4" stroke-linecap="round" stroke-linejoin="round"/>
<path d="M290.705 360.941L327.679 360.941" stroke="#E2E700" stroke-opacity="0.51" stroke-width="4" stroke-linecap="round" stroke-linejoin="round"/>
<path d="M372.047 530.289L409.021 530.289" stroke="#E2E700" stroke-opacity="0.51" stroke-width="4" stroke-linecap="round" stroke-linejoin="round"/>
<path d="M453.389 530.289L490.363 530.289" stroke="#E2E700" stroke-opacity="0.51" stroke-width="4" stroke-linecap="round" stroke-linejoin="round"/>
<path d="M372.047 487.952L409.021 487.952" stroke="#E2E700" stroke-opacity="0.51" stroke-width="4" stroke-linecap="round" stroke-linejoin="round"/>
<path d="M453.389 487.952L490.363 487.952" stroke="#E2E700" stroke-opacity="0.51" stroke-width="4" stroke-linecap="round" stroke-linejoin="round"/>
<path d="M372.047 445.615L409.021 445.615" stroke="#E2E700" stroke-opacity="0.51" stroke-width="4" stroke-linecap="round" stroke-linejoin="round"/>
<path d="M453.389 445.615L490.363 445.615" stroke="#E2E700" stroke-opacity="0.51" stroke-width="4" stroke-linecap="round" stroke-linejoin="round"/>
<path d="M453.389 403.278L490.363 403.278" stroke="#E2E700" stroke-opacity="0.51" stroke-width="4" stroke-linecap="round" stroke-linejoin="round"/>
<path d="M453.389 360.941L490.363 360.941" stroke="#E2E700" stroke-opacity="0.51" stroke-width="4" stroke-linecap="round" stroke-linejoin="round"/>
<path d="M278.705 530.289L315.679 530.289" stroke="#525252" stroke-width="4" stroke-linecap="round" stroke-linejoin="round"/>
<path d="M278.705 487.952L315.679 487.952" stroke="#525252" stroke-width="4" stroke-linecap="round" stroke-linejoin="round"/>
<path d="M278.705 445.615L315.679 445.615" stroke="#525252" stroke-width="4" stroke-linecap="round" stroke-linejoin="round"/>
<path d="M278.705 403.278L315.679 403.278" stroke="#525252" stroke-width="4" stroke-linecap="round" stroke-linejoin="round"/>
<path d="M360.047 530.289L397.021 530.289" stroke="#525252" stroke-width="4" stroke-linecap="round" stroke-linejoin="round"/>
<path d="M441.389 530.289L478.363 530.289" stroke="#525252" stroke-width="4" stroke-linecap="round" stroke-linejoin="round"/>
<path d="M360.047 487.952L397.021 487.952" stroke="#525252" stroke-width="4" stroke-linecap="round" stroke-linejoin="round"/>
<path d="M441.389 487.952L478.363 487.952" stroke="#525252" stroke-width="4" stroke-linecap="round" stroke-linejoin="round"/>
<path d="M360.047 445.615L397.021 445.615" stroke="#525252" stroke-width="4" stroke-linecap="round" stroke-linejoin="round"/>
<path d="M441.389 445.615L478.363 445.615" stroke="#525252" stroke-width="4" stroke-linecap="round" stroke-linejoin="round"/>
<path d="M441.389 403.278L478.363 403.278" stroke="#525252" stroke-width="4" stroke-linecap="round" stroke-linejoin="round"/>
<path d="M441.389 360.941L478.363 360.941" stroke="#525252" stroke-width="4" stroke-linecap="round" stroke-linejoin="round"/>
<path d="M256.705 529.798L293.679 529.798" stroke="#88CECC" stroke-width="4" stroke-linecap="round" stroke-linejoin="round"/>
<path d="M256.705 487.461L293.679 487.461" stroke="#88CECC" stroke-width="4" stroke-linecap="round" stroke-linejoin="round"/>
<path d="M256.705 445.124L293.679 445.124" stroke="#88CECC" stroke-width="4" stroke-linecap="round" stroke-linejoin="round"/>
<path d="M256.705 402.787L293.679 402.787" stroke="#88CECC" stroke-width="4" stroke-linecap="round" stroke-linejoin="round"/>
<path d="M338.047 529.798L375.021 529.798" stroke="#88CECC" stroke-width="4" stroke-linecap="round" stroke-linejoin="round"/>
<path d="M419.39 529.798L456.363 529.798" stroke="#88CECC" stroke-width="4" stroke-linecap="round" stroke-linejoin="round"/>
<path d="M338.047 487.461L375.021 487.461" stroke="#88CECC" stroke-width="4" stroke-linecap="round" stroke-linejoin="round"/>
<path d="M419.39 487.461L456.363 487.461" stroke="#88CECC" stroke-width="4" stroke-linecap="round" stroke-linejoin="round"/>
<path d="M338.047 445.124L375.021 445.124" stroke="#88CECC" stroke-width="4" stroke-linecap="round" stroke-linejoin="round"/>
<path d="M419.39 445.124L456.363 445.124" stroke="#88CECC" stroke-width="4" stroke-linecap="round" stroke-linejoin="round"/>
<path d="M419.39 402.787L456.363 402.787" stroke="#88CECC" stroke-width="4" stroke-linecap="round" stroke-linejoin="round"/>
<path d="M419.39 360.45L456.363 360.45" stroke="#88CECC" stroke-width="4" stroke-linecap="round" stroke-linejoin="round"/>
<path d="M558.421 499.053C415.656 499.053 299.921 388.618 299.921 252.389C299.921 116.16 415.656 5.72522 558.421 5.72522C624.708 5.72522 689.668 25.7433 735.421 64.8864C735.421 126.91 735.421 174.164 735.421 247.141C735.421 320.118 734.803 382.162 735.421 432.161C689.169 473.641 626.905 499.053 558.421 499.053Z" fill="#54B9B5" fill-opacity="0.7"/>
<path d="M737.834 534.947C663.732 535.256 592.533 507.433 539.9 457.6C487.266 407.766 457.51 340.004 457.177 269.22C456.844 198.436 485.961 130.429 538.123 80.1586C590.286 29.8884 661.22 1.47336 735.322 1.1645L736.578 268.056L737.834 534.947Z" fill="#E2E700" fill-opacity="0.51"/>
<path d="M606.994 446.885L600.099 513.127" stroke="#54B9B5" stroke-width="5" stroke-linecap="round" stroke-linejoin="round"/>
<path d="M566.338 512.326C566.656 509.273 568.232 506.465 570.719 504.521C573.206 502.576 576.401 501.654 579.601 501.958L601.05 503.991L599.632 517.604C599.315 520.658 597.739 523.465 595.251 525.41C592.764 527.354 589.569 528.276 586.369 527.973L576.986 527.084C573.786 526.78 570.843 525.277 568.805 522.903C566.768 520.53 565.801 517.481 566.119 514.428L566.338 512.326Z" fill="#313234" stroke="#54B9B5" stroke-width="5" stroke-linejoin="round"/>
<path d="M605.076 465.31L635.189 475.213L637.117 456.691L606.994 446.885L605.076 465.31Z" stroke="#54B9B5" stroke-width="5" stroke-linecap="round" stroke-linejoin="round"/>
<path d="M423.421 207.599L406.261 327.955" stroke="#54B9B5" stroke-width="10" stroke-linecap="round" stroke-linejoin="round"/>
<path d="M344.756 324.366C345.547 318.819 348.615 313.798 353.285 310.409C357.955 307.02 363.845 305.54 369.659 306.295L408.628 311.354L405.102 336.089C404.311 341.636 401.243 346.657 396.573 350.046C391.903 353.435 386.013 354.915 380.199 354.16L363.15 351.947C357.336 351.192 352.075 348.265 348.523 343.808C344.971 339.352 343.421 333.732 344.211 328.184L344.756 324.366Z" fill="#313234" stroke="#54B9B5" stroke-width="10" stroke-linejoin="round"/>
<path d="M418.648 241.075L472.872 261.031L477.67 227.378L423.421 207.599L418.648 241.075Z" stroke="#54B9B5" stroke-width="10" stroke-linecap="round" stroke-linejoin="round"/>
<path d="M560.39 66.6448L548.287 150.541" stroke="#54B9B5" stroke-width="10" stroke-linecap="round" stroke-linejoin="round"/>
<path d="M505.408 147.974C505.966 144.107 508.111 140.61 511.371 138.252C514.631 135.894 518.739 134.868 522.792 135.401L549.957 138.969L547.469 156.211C546.912 160.078 544.767 163.575 541.507 165.933C538.247 168.291 534.138 169.316 530.086 168.784L518.201 167.223C514.149 166.691 510.484 164.644 508.013 161.533C505.541 158.423 504.467 154.503 505.024 150.636L505.408 147.974Z" fill="#313234" stroke="#54B9B5" stroke-width="10" stroke-linejoin="round"/>
<path d="M557.024 89.9794L594.807 103.951L598.191 80.4915L560.39 66.6448L557.024 89.9794Z" stroke="#54B9B5" stroke-width="10" stroke-linecap="round" stroke-linejoin="round"/>
<path d="M469.376 205.893C469.376 202.008 470.993 198.282 473.872 195.535C476.751 192.788 480.656 191.245 484.727 191.245H517.622V205.474C517.622 209.47 515.958 213.302 512.997 216.128C510.036 218.953 506.02 220.541 501.832 220.541H484.727C480.656 220.541 476.751 218.997 473.872 216.25C470.993 213.503 469.376 209.778 469.376 205.893ZM364.112 222.633C364.112 218.748 365.73 215.023 368.609 212.276C371.487 209.529 375.392 207.985 379.463 207.985H407.972V222.215C407.972 224.193 407.564 226.153 406.77 227.981C405.977 229.808 404.814 231.469 403.348 232.868C401.881 234.268 400.141 235.377 398.225 236.134C396.309 236.892 394.256 237.281 392.183 237.281H379.463C375.392 237.281 371.487 235.738 368.609 232.991C365.73 230.244 364.112 226.518 364.112 222.633V222.633Z" fill="#313234" stroke="#54B9B5" stroke-width="20" stroke-linejoin="round"/>
<path d="M407.972 220.541V103.356L517.622 78.2454V202.511M407.972 137.022L517.622 112.25L407.972 137.022Z" stroke="#54B9B5" stroke-width="20" stroke-linecap="round" stroke-linejoin="round"/>
</svg>
