<svg width="97" height="37" viewBox="0 0 97 37" fill="none" xmlns="http://www.w3.org/2000/svg">
<path d="M5.436 32C4.908 32 4.464 31.82 4.104 31.46C3.768 31.1 3.6 30.656 3.6 30.128V5.756C3.6 5.228 3.78 4.784 4.14 4.424C4.5 4.064 4.932 3.884 5.436 3.884C5.964 3.884 6.408 4.064 6.768 4.424C7.128 4.784 7.308 5.228 7.308 5.756V28.256H20.34C20.868 28.256 21.312 28.436 21.672 28.796C22.032 29.156 22.212 29.6 22.212 30.128C22.212 30.656 22.032 31.1 21.672 31.46C21.312 31.82 20.868 32 20.34 32H5.436ZM28.5337 32C28.0057 32 27.5617 31.832 27.2017 31.496C26.8657 31.136 26.6977 30.692 26.6977 30.164V14.144C26.6977 13.592 26.8657 13.148 27.2017 12.812C27.5617 12.476 28.0057 12.308 28.5337 12.308C29.0857 12.308 29.5297 12.476 29.8657 12.812C30.2017 13.148 30.3697 13.592 30.3697 14.144V30.164C30.3697 30.692 30.2017 31.136 29.8657 31.496C29.5297 31.832 29.0857 32 28.5337 32ZM28.5337 9.104C27.8857 9.104 27.3217 8.876 26.8417 8.42C26.3857 7.94 26.1577 7.376 26.1577 6.728C26.1577 6.08 26.3857 5.528 26.8417 5.072C27.3217 4.592 27.8857 4.352 28.5337 4.352C29.1817 4.352 29.7337 4.592 30.1897 5.072C30.6697 5.528 30.9097 6.08 30.9097 6.728C30.9097 7.376 30.6697 7.94 30.1897 8.42C29.7337 8.876 29.1817 9.104 28.5337 9.104ZM39.3249 32C38.8689 32 38.4609 31.832 38.1009 31.496C37.7409 31.16 37.5609 30.716 37.5609 30.164V12.416C37.5609 10.688 37.8969 9.188 38.5689 7.916C39.2649 6.644 40.2249 5.66 41.4489 4.964C42.6729 4.244 44.0889 3.884 45.6969 3.884C46.2249 3.884 46.6569 4.04 46.9929 4.352C47.3529 4.664 47.5329 5.06 47.5329 5.54C47.5329 5.996 47.3529 6.392 46.9929 6.728C46.6569 7.04 46.2249 7.196 45.6969 7.196C44.8089 7.196 44.0289 7.4 43.3569 7.808C42.6849 8.216 42.1569 8.78 41.7729 9.5C41.4129 10.22 41.2329 11.072 41.2329 12.056V30.164C41.2329 30.716 41.0649 31.16 40.7289 31.496C40.3929 31.832 39.9249 32 39.3249 32ZM36.0129 16.124C35.5089 16.124 35.1009 15.98 34.7889 15.692C34.4769 15.404 34.3209 15.044 34.3209 14.612C34.3209 14.132 34.4769 13.748 34.7889 13.46C35.1009 13.172 35.5089 13.028 36.0129 13.028H44.9049C45.4089 13.028 45.8169 13.172 46.1289 13.46C46.4409 13.748 46.5969 14.132 46.5969 14.612C46.5969 15.044 46.4409 15.404 46.1289 15.692C45.8169 15.98 45.4089 16.124 44.9049 16.124H36.0129ZM57.5837 32C56.3837 32 55.3037 31.7 54.3437 31.1C53.3837 30.476 52.6277 29.636 52.0757 28.58C51.5237 27.524 51.2477 26.336 51.2477 25.016V7.844C51.2477 7.316 51.4157 6.884 51.7517 6.548C52.0877 6.212 52.5197 6.044 53.0477 6.044C53.5757 6.044 54.0077 6.212 54.3437 6.548C54.6797 6.884 54.8477 7.316 54.8477 7.844V25.016C54.8477 25.976 55.1117 26.78 55.6397 27.428C56.1677 28.076 56.8157 28.4 57.5837 28.4H58.8077C59.2397 28.4 59.5997 28.568 59.8877 28.904C60.1997 29.24 60.3557 29.672 60.3557 30.2C60.3557 30.728 60.1517 31.16 59.7437 31.496C59.3597 31.832 58.8557 32 58.2317 32H57.5837ZM49.5917 16.124C49.0877 16.124 48.6797 15.98 48.3677 15.692C48.0557 15.404 47.8997 15.044 47.8997 14.612C47.8997 14.132 48.0557 13.748 48.3677 13.46C48.6797 13.172 49.0877 13.028 49.5917 13.028H57.9077C58.4117 13.028 58.8197 13.172 59.1317 13.46C59.4437 13.748 59.5997 14.132 59.5997 14.612C59.5997 15.044 59.4437 15.404 59.1317 15.692C58.8197 15.98 58.4117 16.124 57.9077 16.124H49.5917Z" fill="#3B3A37"/>
<path d="M91.6175 7.76001H91.4676C91.1247 7.76919 90.854 8.05343 90.8615 8.39581V10.5242C90.854 10.8666 91.1247 11.1508 91.4676 11.16H91.6175C91.9604 11.1508 92.2311 10.8666 92.2236 10.5242V8.39581C92.2311 8.05343 91.9604 7.76919 91.6175 7.76001Z" fill="#3B3A37"/>
<path d="M67.0992 7.76001H66.9493C66.6064 7.76919 66.3357 8.05343 66.3432 8.39581V10.5242C66.3357 10.8666 66.6064 11.1508 66.9493 11.16H67.0992C67.4421 11.1508 67.7128 10.8666 67.7053 10.5242V8.39581C67.7128 8.05343 67.4421 7.76919 67.0992 7.76001Z" fill="#3B3A37"/>
<path d="M93.1372 9.09183C92.9334 8.77637 92.5645 9.08448 92.5645 9.46003C92.5645 9.83558 92.9334 10.1437 93.1372 9.82822C93.2058 9.72213 93.2455 9.59574 93.2455 9.46003C93.2455 9.32432 93.2058 9.19793 93.1372 9.09183Z" fill="#3B3A37"/>
<path d="M65.4301 9.82822C65.6339 10.1437 66.0028 9.83558 66.0028 9.46003C66.0028 9.08448 65.6339 8.77637 65.4301 9.09183C65.3615 9.19793 65.3218 9.32432 65.3218 9.46003C65.3218 9.59574 65.3615 9.72213 65.4301 9.82822Z" fill="#3B3A37"/>
<path d="M89.9149 6.73999H89.7651C89.4007 6.77943 89.133 7.09937 89.1589 7.46419C89.1589 8.19089 88.5698 8.77999 87.8431 8.77999H70.7238C69.9971 8.77999 69.408 8.19089 69.408 7.46419C69.4339 7.09937 69.1663 6.77943 68.8019 6.73999H68.6521C68.2877 6.77943 68.02 7.09937 68.0459 7.46419V11.4558C68.02 11.8206 68.2877 12.1406 68.6521 12.18H68.8019C69.1663 12.1406 69.4339 11.8206 69.408 11.4558V10.9913C69.408 10.5211 69.7892 10.14 70.2594 10.14C70.7296 10.14 71.1107 10.5211 71.1107 10.9913V15.24C71.1124 15.7242 71.3719 16.1709 71.7918 16.413L75.0925 18.3551C76.0013 18.8897 76.5592 19.8653 76.5592 20.9197C76.5592 21.9298 76.0468 22.8709 75.1985 23.419L71.7339 25.6576C71.3453 25.9082 71.1107 26.3383 71.1107 26.8V33.26H73.835V29.1741C73.835 28.156 74.3513 27.2074 75.2062 26.6547L75.8158 26.2606C76.3011 25.9469 76.8666 25.78 77.4445 25.78H81.1224C81.7003 25.78 82.2659 25.9469 82.7512 26.2606L83.3607 26.6547C84.2157 27.2074 84.732 28.156 84.732 29.1741V33.26H87.4562V26.8C87.4562 26.3383 87.2216 25.9082 86.8331 25.6576L83.3685 23.419C82.5201 22.8709 82.0077 21.9298 82.0077 20.9197C82.0077 19.8653 82.5657 18.8897 83.4744 18.3551L86.7752 16.413C87.1951 16.1709 87.4545 15.7242 87.4562 15.24V10.9913C87.4562 10.5211 87.8374 10.14 88.3076 10.14C88.7778 10.14 89.1589 10.5211 89.1589 10.9913V11.4558C89.133 11.8206 89.4007 12.1406 89.7651 12.18H89.9149C90.2793 12.1406 90.5469 11.8206 90.521 11.4558V7.46419C90.5469 7.09937 90.2793 6.77943 89.9149 6.73999ZM84.732 14.4614L81.2164 16.5267C80.7557 16.7973 80.2311 16.94 79.6968 16.94H78.8702C78.3359 16.94 77.8113 16.7973 77.3506 16.5267L73.835 14.4614V10.14H84.732V14.4614Z" fill="#3B3A37"/>
<path d="M82.0078 13.2C82.0078 14.7021 80.7881 15.92 79.2836 15.92C77.7791 15.92 76.5593 14.7021 76.5593 13.2C76.5593 11.6979 77.7791 10.48 79.2836 10.48C80.7881 10.48 82.0078 11.6979 82.0078 13.2Z" fill="#3B3A37"/>
</svg>
