<svg width="41" height="41" viewBox="0 0 41 41" fill="none" xmlns="http://www.w3.org/2000/svg">
<rect width="41" height="41" fill="#FFBF00"/>
<path d="M35.3503 5.73999H35.1699C34.7571 5.75106 34.4311 6.09382 34.4401 6.50669V9.07329C34.4311 9.48616 34.7571 9.82892 35.1699 9.83999H35.3503C35.7632 9.82892 36.0891 9.48616 36.0801 9.07329V6.50669C36.0891 6.09382 35.7632 5.75106 35.3503 5.73999Z" fill="#3B3A37"/>
<path d="M5.83031 5.73999H5.6499C5.23703 5.75106 4.91108 6.09382 4.9201 6.50669V9.07329C4.91108 9.48616 5.23703 9.82892 5.6499 9.83999H5.83031C6.24318 9.82892 6.56912 9.48616 6.5601 9.07329V6.50669C6.56912 6.09382 6.24318 5.75106 5.83031 5.73999Z" fill="#3B3A37"/>
<path d="M37.1803 7.34676C36.9353 6.96589 36.4902 7.3371 36.4902 7.78997C36.4902 8.24284 36.9353 8.61405 37.1803 8.23319C37.2626 8.10541 37.3102 7.95328 37.3102 7.78997C37.3102 7.62666 37.2626 7.47454 37.1803 7.34676Z" fill="#3B3A37"/>
<path d="M3.81983 8.23319C4.06486 8.61405 4.50994 8.24284 4.50994 7.78997C4.50994 7.3371 4.06486 6.96589 3.81983 7.34676C3.73762 7.47454 3.68994 7.62666 3.68994 7.78997C3.68994 7.95328 3.73762 8.10541 3.81983 8.23319Z" fill="#3B3A37"/>
<path d="M33.3001 4.51001H33.1197C32.681 4.55757 32.3587 4.94338 32.3899 5.38331C32.3899 6.25962 31.6795 6.97001 30.8032 6.97001H10.1966C9.32024 6.97001 8.60985 6.25962 8.60985 5.38331C8.64101 4.94338 8.31876 4.55757 7.88006 4.51001H7.69965C7.26095 4.55757 6.93869 4.94338 6.96985 5.38331V10.1967C6.93869 10.6366 7.26095 11.0224 7.69965 11.07H7.88006C8.31876 11.0224 8.64101 10.6366 8.60985 10.1967V9.63501C8.60985 9.06892 9.06876 8.61001 9.63485 8.61001C10.2009 8.61001 10.6599 9.06892 10.6599 9.63501V14.76C10.6619 15.3439 10.9743 15.8826 11.4799 16.1745L15.7429 18.6867C16.6581 19.226 17.2199 20.209 17.2199 21.2713V21.9307C17.2199 22.9483 16.704 23.8965 15.8498 24.4494L11.4101 27.3224C10.9423 27.6246 10.6599 28.1432 10.6599 28.7V36.49H13.9399V31.2253C13.9399 30.208 14.4554 29.26 15.3093 28.7071L16.4758 27.9518C16.9614 27.6373 17.5277 27.47 18.1063 27.47H22.8934C23.472 27.47 24.0383 27.6373 24.5239 27.9518L25.6904 28.7071C26.5443 29.26 27.0599 30.208 27.0599 31.2253V36.49H30.3399V28.7C30.3399 28.1432 30.0574 27.6246 29.5896 27.3224L25.15 24.4494C24.2957 23.8965 23.7799 22.9483 23.7799 21.9307V21.2713C23.7799 20.209 24.3416 19.226 25.2568 18.6867L29.5199 16.1745C30.0254 15.8826 30.3378 15.3439 30.3399 14.76V9.63501C30.3399 9.06892 30.7988 8.61001 31.3649 8.61001C31.9309 8.61001 32.3899 9.06892 32.3899 9.63501V10.1967C32.3587 10.6366 32.681 11.0224 33.1197 11.07H33.3001C33.7388 11.0224 34.061 10.6366 34.0299 10.1967V5.38331C34.061 4.94338 33.7388 4.55757 33.3001 4.51001ZM27.0599 13.8211L22.6842 16.3957C22.2231 16.667 21.6978 16.81 21.1629 16.81H19.8369C19.3019 16.81 18.7766 16.667 18.3155 16.3957L13.9399 13.8211V8.61001H27.0599V13.8211Z" fill="#3B3A37"/>
<path d="M23.7797 12.3C23.7797 14.1114 22.3111 15.58 20.4997 15.58C18.6883 15.58 17.2197 14.1114 17.2197 12.3C17.2197 10.4886 18.6883 9.02002 20.4997 9.02002C22.3111 9.02002 23.7797 10.4886 23.7797 12.3Z" fill="#3B3A37"/>
</svg>
